<svg width="22" height="21" viewBox="0 0 22 21" fill="none" xmlns="http://www.w3.org/2000/svg">
<path d="M10.1827 1.18966C10.4825 0.269381 11.7845 0.269382 12.0843 1.18966L13.8354 6.56406C13.9695 6.97568 14.3533 7.25426 14.7862 7.25426H20.447C21.4164 7.25426 21.8187 8.49529 21.0337 9.06405L16.4588 12.3787C16.1073 12.6333 15.9603 13.0856 16.0947 13.4983L17.8433 18.8649C18.1433 19.7858 17.09 20.5527 16.3058 19.9845L11.7202 16.6621C11.3702 16.4085 10.8968 16.4085 10.5468 16.6621L5.96123 19.9845C5.17697 20.5527 4.12368 19.7858 4.42371 18.8649L6.17228 13.4983C6.30673 13.0856 6.15965 12.6333 5.80819 12.3787L1.23332 9.06405C0.448315 8.49529 0.850645 7.25426 1.82004 7.25426H7.4808C7.91372 7.25426 8.29748 6.97568 8.4316 6.56406L10.1827 1.18966Z" fill="black"/>
</svg>
